<svg width="53" height="53" viewBox="0 0 53 53" fill="none" xmlns="http://www.w3.org/2000/svg">
<mask id="path-1-inside-1_64_1296" fill="white">
<path fill-rule="evenodd" clip-rule="evenodd" d="M0 14H13H26H39V27H26V40V53H13V40V27H0V14Z"/>
</mask>
<path d="M0 14V13H-1V14H0ZM39 14H40V13H39V14ZM39 27V28H40V27H39ZM26 27V26H25V27H26ZM26 53V54H27V53H26ZM13 53H12V54H13V53ZM13 27H14V26H13V27ZM0 27H-1V28H0V27ZM13 13H0V15H13V13ZM26 13H13V15H26V13ZM39 13H26V15H39V13ZM40 27V14H38V27H40ZM26 28H39V26H26V28ZM27 40V27H25V40H27ZM25 40V53H27V40H25ZM26 52H13V54H26V52ZM14 53V40H12V53H14ZM12 27V40H14V27H12ZM0 28H13V26H0V28ZM-1 14V27H1V14H-1Z" fill="#78C2DD" mask="url(#path-1-inside-1_64_1296)"/>
<mask id="path-3-outside-2_64_1296" maskUnits="userSpaceOnUse" x="25" y="0" width="28" height="41" fill="black">
<rect fill="white" x="25" width="28" height="41"/>
<path fill-rule="evenodd" clip-rule="evenodd" d="M38 2H27V13H38V2ZM27 1H26V2V13V14H27H38H39V15V26V27H38H27H26V28V39V40H27H38H39H40H51H52V39V28V27V26V15V14V13V2V1H51H40H39H38H27ZM51 28H40V39H51V28ZM40 15H51V26H40V15ZM51 2H40V13H51V2ZM27 28H38V39H27V28Z"/>
</mask>
<path d="M27 2V1H26V2H27ZM38 2H39V1H38V2ZM27 13H26V14H27V13ZM38 13V14H39V13H38ZM26 1V0H25V1H26ZM26 14H25V15H26V14ZM39 14H40V13H39V14ZM39 27V28H40V27H39ZM26 27V26H25V27H26ZM26 40H25V41H26V40ZM52 40V41H53V40H52ZM52 1H53V0H52V1ZM40 28V27H39V28H40ZM51 28H52V27H51V28ZM40 39H39V40H40V39ZM51 39V40H52V39H51ZM51 15H52V14H51V15ZM40 15V14H39V15H40ZM51 26V27H52V26H51ZM40 26H39V27H40V26ZM40 2V1H39V2H40ZM51 2H52V1H51V2ZM40 13H39V14H40V13ZM51 13V14H52V13H51ZM38 28H39V27H38V28ZM27 28V27H26V28H27ZM38 39V40H39V39H38ZM27 39H26V40H27V39ZM27 3H38V1H27V3ZM28 13V2H26V13H28ZM38 12H27V14H38V12ZM37 2V13H39V2H37ZM26 2H27V0H26V2ZM27 2V1H25V2H27ZM27 13V2H25V13H27ZM27 14V13H25V14H27ZM27 13H26V15H27V13ZM38 13H27V15H38V13ZM39 13H38V15H39V13ZM40 15V14H38V15H40ZM40 26V15H38V26H40ZM40 27V26H38V27H40ZM39 26H38V28H39V26ZM38 26H27V28H38V26ZM27 26H26V28H27V26ZM25 27V28H27V27H25ZM25 28V39H27V28H25ZM25 39V40H27V39H25ZM26 41H27V39H26V41ZM27 41H38V39H27V41ZM38 41H39V39H38V41ZM40 39H39V41H40V39ZM51 39H40V41H51V39ZM52 39H51V41H52V39ZM51 39V40H53V39H51ZM51 28V39H53V28H51ZM51 27V28H53V27H51ZM51 26V27H53V26H51ZM51 15V26H53V15H51ZM51 14V15H53V14H51ZM51 13V14H53V13H51ZM51 2V13H53V2H51ZM51 1V2H53V1H51ZM51 2H52V0H51V2ZM40 2H51V0H40V2ZM39 2H40V0H39V2ZM38 2H39V0H38V2ZM27 2H38V0H27V2ZM40 29H51V27H40V29ZM41 39V28H39V39H41ZM51 38H40V40H51V38ZM50 28V39H52V28H50ZM51 14H40V16H51V14ZM52 26V15H50V26H52ZM40 27H51V25H40V27ZM39 15V26H41V15H39ZM40 3H51V1H40V3ZM41 13V2H39V13H41ZM51 12H40V14H51V12ZM50 2V13H52V2H50ZM38 27H27V29H38V27ZM39 39V28H37V39H39ZM27 40H38V38H27V40ZM26 28V39H28V28H26Z" fill="#78C2DD" mask="url(#path-3-outside-2_64_1296)"/>
</svg>
