<svg width="88" height="88" fill="none" xmlns="http://www.w3.org/2000/svg"><g clip-path="url(#a)"><path d="M0 76.653C0 82.92 5.08 88 11.347 88h65.306C82.92 88 88 82.92 88 76.653V11.347C88 5.08 82.92 0 76.653 0H11.347C5.08 0 0 5.08 0 11.347v65.306z" fill="#563D7C"/><path d="M36.815 38.452V26.056h11.061c1.054 0 2.07.087 3.048.26.978.173 1.843.482 2.596.928a4.979 4.979 0 0 1 1.806 1.855c.451.792.677 1.807.677 3.044 0 2.227-.677 3.835-2.032 4.825-1.354.99-3.085 1.484-5.192 1.484H36.814zM25 17v53h26.037c2.408 0 4.753-.297 7.036-.89 2.282-.595 4.314-1.51 6.095-2.747 1.78-1.237 3.198-2.833 4.252-4.788 1.053-1.955 1.58-4.268 1.58-6.94 0-3.316-.815-6.15-2.445-8.5-1.631-2.35-4.102-3.996-7.413-4.936 2.408-1.138 4.227-2.598 5.456-4.38 1.229-1.781 1.844-4.008 1.844-6.68 0-2.475-.414-4.553-1.242-6.236-.828-1.682-1.994-3.03-3.5-4.045-1.504-1.015-3.31-1.745-5.418-2.19-2.106-.445-4.44-.668-6.998-.668H25zm11.815 43.944v-14.55h12.867c2.559 0 4.616.582 6.171 1.745 1.555 1.163 2.333 3.105 2.333 5.827 0 1.386-.239 2.524-.715 3.415-.477.89-1.116 1.596-1.92 2.115-.802.52-1.73.891-2.784 1.114a16.004 16.004 0 0 1-3.31.334H36.814z" fill="#fff"/></g><defs><clipPath id="a"><path fill="#fff" d="M0 0h88v88H0z"/></clipPath></defs></svg>