<svg width="24" height="17" viewBox="0 0 24 17" fill="none" xmlns="http://www.w3.org/2000/svg">
<path d="M1.06174 2.20292C1.20667 1.57709 1.56294 1.01832 2.07219 0.618104C2.58145 0.217889 3.21351 -4.32004e-05 3.86487 6.42336e-09H21.1149C21.7662 -4.32004e-05 22.3983 0.217889 22.9075 0.618104C23.4168 1.01832 23.7731 1.57709 23.918 2.20292L12.4899 9.0865L1.06174 2.20292ZM0.989868 3.82075V13.8847L9.33168 8.84425L0.989868 3.82075ZM10.7088 9.67583L1.26443 15.3807C1.49778 15.8657 1.86606 16.2753 2.32643 16.5619C2.7868 16.8486 3.32031 17.0005 3.86487 17H21.1149C21.6593 17.0001 22.1927 16.8479 22.6528 16.561C23.1129 16.274 23.4808 15.8643 23.7139 15.3793L14.2695 9.67442L12.4899 10.7468L10.7088 9.67442V9.67583ZM15.6481 8.84567L23.9899 13.8847V3.82075L15.6481 8.84425V8.84567Z" fill="#BBC3D3"/>
</svg>
